<?xml version="1.0" encoding="utf-8"?>
<svg xmlns="http://www.w3.org/2000/svg" height="48" width="48" viewBox="0 0 48 48">
  <g>
    <rect height="48" width="48" fill="#000000" />
    <path id="path1" transform="rotate(354,24,24) translate(12.3284446597099,11) scale(0.8125,0.8125)  " fill="#FFFFFF" d="M23.549916,10.477871C23.549916,10.477871 32.529884,22.152726 26.842905,30.035628 26.842905,30.035628 27.640902,32.430598 25.944908,31.931605L25.046911,31.033616C25.046911,31.033616,18.859933,35.024567,9.1799679,19.856755z M0,0L0.99799728,0C6.1869783,0,9.1799679,2.5939693,10.177964,3.6919556L10.377964,3.5919571C11.774958,2.8939648 13.271953,2.4949703 14.867947,2.4949703 18.659934,2.3949718 22.052922,4.4899454 23.948915,7.4839077L6.5859766,19.358761C5.3889809,17.661782 4.6899834,15.566808 4.5899839,13.370835 4.5899839,10.277873 5.7879801,7.3839092 7.8829718,5.4879332L8.0829716,5.2889357C5.3889809,2.3949718,0.8979969,2.5939693,0.8979969,2.5939693z" />
  </g>
</svg>

